<svg width="43" height="43" viewBox="0 0 43 43" fill="none" xmlns="http://www.w3.org/2000/svg">
<path d="M0 6.71875C0 6.36237 0.141573 6.02058 0.393575 5.76858C0.645577 5.51657 0.987365 5.375 1.34375 5.375H5.375C5.67474 5.37508 5.96585 5.47538 6.20203 5.65994C6.43821 5.8445 6.6059 6.10273 6.67844 6.39356L7.76688 10.75H38.9688C39.1729 10.7501 39.3743 10.7966 39.5577 10.8861C39.7411 10.9756 39.9018 11.1058 40.0274 11.2666C40.153 11.4275 40.2404 11.6149 40.2828 11.8145C40.3252 12.0142 40.3216 12.2209 40.2722 12.4189L36.2409 28.5439C36.1684 28.8348 36.0007 29.093 35.7645 29.2776C35.5283 29.4621 35.2372 29.5624 34.9375 29.5625H10.75C10.4503 29.5624 10.1592 29.4621 9.92297 29.2776C9.68679 29.093 9.5191 28.8348 9.44656 28.5439L4.32688 8.0625H1.34375C0.987365 8.0625 0.645577 7.92093 0.393575 7.66892C0.141573 7.41692 0 7.07513 0 6.71875ZM8.43875 13.4375L11.7981 26.875H33.8894L37.2487 13.4375H8.43875ZM13.4375 34.9375C12.7247 34.9375 12.0412 35.2206 11.5372 35.7247C11.0331 36.2287 10.75 36.9122 10.75 37.625C10.75 38.3378 11.0331 39.0213 11.5372 39.5253C12.0412 40.0294 12.7247 40.3125 13.4375 40.3125C14.1503 40.3125 14.8338 40.0294 15.3378 39.5253C15.8419 39.0213 16.125 38.3378 16.125 37.625C16.125 36.9122 15.8419 36.2287 15.3378 35.7247C14.8338 35.2206 14.1503 34.9375 13.4375 34.9375ZM8.0625 37.625C8.0625 36.1995 8.62879 34.8323 9.6368 33.8243C10.6448 32.8163 12.012 32.25 13.4375 32.25C14.863 32.25 16.2302 32.8163 17.2382 33.8243C18.2462 34.8323 18.8125 36.1995 18.8125 37.625C18.8125 39.0505 18.2462 40.4177 17.2382 41.4257C16.2302 42.4337 14.863 43 13.4375 43C12.012 43 10.6448 42.4337 9.6368 41.4257C8.62879 40.4177 8.0625 39.0505 8.0625 37.625ZM32.25 34.9375C31.5372 34.9375 30.8537 35.2206 30.3497 35.7247C29.8456 36.2287 29.5625 36.9122 29.5625 37.625C29.5625 38.3378 29.8456 39.0213 30.3497 39.5253C30.8537 40.0294 31.5372 40.3125 32.25 40.3125C32.9628 40.3125 33.6463 40.0294 34.1503 39.5253C34.6544 39.0213 34.9375 38.3378 34.9375 37.625C34.9375 36.9122 34.6544 36.2287 34.1503 35.7247C33.6463 35.2206 32.9628 34.9375 32.25 34.9375ZM26.875 37.625C26.875 36.1995 27.4413 34.8323 28.4493 33.8243C29.4573 32.8163 30.8245 32.25 32.25 32.25C33.6755 32.25 35.0427 32.8163 36.0507 33.8243C37.0587 34.8323 37.625 36.1995 37.625 37.625C37.625 39.0505 37.0587 40.4177 36.0507 41.4257C35.0427 42.4337 33.6755 43 32.25 43C30.8245 43 29.4573 42.4337 28.4493 41.4257C27.4413 40.4177 26.875 39.0505 26.875 37.625Z" fill="black"/>
</svg>
