<svg width="699" height="183" viewBox="0 0 699 183" fill="none" xmlns="http://www.w3.org/2000/svg">
<path d="M198.137 107.55C201.583 107.276 204.891 106.59 208.061 105.493C211.231 104.395 214.125 102.886 216.882 101.103C219.5 99.1822 221.568 96.8501 223.222 93.9693C224.876 91.0885 225.703 87.9333 225.703 84.5037C225.703 81.0742 224.738 77.3703 222.946 74.6267C221.154 71.8831 218.673 69.551 215.641 67.7676C212.609 65.9843 209.026 64.4753 205.029 63.2406C201.032 61.8688 196.897 60.7714 192.486 59.8111C188.076 58.8508 183.665 57.8906 179.255 56.9303C174.844 55.97 170.709 54.8726 166.712 53.3636C162.715 51.9918 159.132 50.3456 156.1 48.5622C153.067 46.6417 150.587 44.3096 148.795 41.2916C147.003 38.2736 146.038 34.8441 146.038 30.8658C146.038 26.8876 147.003 23.1837 148.933 19.4798C150.862 15.7759 153.481 12.4835 157.064 9.6027C160.51 6.72189 165.058 4.38981 170.434 2.60645C175.809 0.823089 181.873 0 188.351 0C194.829 0 204.064 1.78336 211.369 5.35008C218.673 8.91679 224.6 13.7181 229.7 19.8913L222.257 24.6927C217.295 17.1477 211.093 11.5232 203.65 7.68216C196.208 3.97826 188.214 2.46927 179.806 3.15517C175.258 3.56672 170.985 4.66417 167.126 6.31034C163.267 7.95652 159.959 10.4258 157.478 13.4438C154.997 16.4618 153.619 19.8913 153.619 23.5952C153.619 27.2991 154.032 28.2594 154.859 30.1799C155.686 32.1005 156.651 34.021 157.891 35.3928C159.132 36.7646 160.786 38.2736 162.853 39.5082C164.921 40.7429 166.988 41.8403 168.918 42.6634C170.847 43.4865 173.328 44.3096 176.223 45.2699C179.255 46.093 181.873 46.7789 183.941 47.3276C186.146 47.8763 188.903 48.425 192.348 49.2481C195.381 49.934 197.586 50.3456 199.102 50.7571C200.618 51.1687 202.823 51.5802 205.58 52.2661C208.336 52.952 210.542 53.6379 212.058 54.1867C213.574 54.7354 215.503 55.4213 217.709 56.3816C219.914 57.3418 221.706 58.1649 222.946 59.1252C224.187 60.0855 225.565 61.1829 227.081 62.4175C228.597 63.7894 229.7 65.1612 230.527 66.533C231.354 67.9048 231.905 69.551 232.456 71.4715C233.008 73.3921 233.283 75.3126 233.283 77.3703C233.283 87.5217 229.286 95.7526 221.017 101.789C212.885 107.825 202.41 110.843 189.592 110.843C176.774 110.843 173.19 109.059 165.196 105.355C157.202 101.789 150.862 96.8501 145.9 90.8141L153.343 86.0127C158.167 93.4205 164.645 99.045 172.915 102.886C181.184 106.727 189.592 108.236 198.137 107.55Z" fill="#010101"/>
<path d="M320.528 109.059H245.412V108.099C250.374 108.099 252.993 104.258 252.993 96.5757V13.8553C252.993 6.17318 250.512 2.3321 245.412 2.3321V1.37183H314.464V18.931H313.499C313.499 14.9528 312.396 11.3861 310.467 8.50526C308.537 5.62445 305.505 3.97827 301.922 3.97827H263.192V51.3059H296.133C303.851 51.3059 307.71 48.8366 307.71 43.7609H308.675V61.3201H307.71C307.71 56.2444 303.851 53.7751 296.133 53.7751H263.192V106.178H307.986C311.569 106.178 314.464 104.669 316.393 101.651C318.461 98.6335 319.426 95.0667 319.426 91.0885H320.39V108.648L320.528 109.059Z" fill="#010101"/>
<path d="M358.982 109.059H333.622V108.099C338.584 108.099 341.203 104.258 341.203 96.5757V13.8553C341.203 6.17318 338.722 2.3321 333.622 2.3321V1.37183H362.566C377.176 1.37183 388.478 3.56673 396.334 8.09372C404.19 12.6207 408.049 18.7939 408.049 26.7504C408.049 34.7069 404.879 39.7826 398.539 44.584C392.199 49.3853 383.24 52.2661 371.663 53.3636L404.603 96.4386C410.392 104.121 416.181 107.962 421.694 107.962V108.922H396.334V107.962C400.606 107.962 400.469 104.669 395.782 98.3591C395.369 97.8104 394.955 97.2616 394.404 96.5757L361.739 53.9123H351.54V96.5757C351.54 104.258 354.021 108.099 359.12 108.099V109.059H358.982ZM359.809 4.25264H351.402V51.5802H365.598C375.384 51.5802 383.102 49.3853 389.029 44.8583C394.955 40.3314 397.85 34.4326 397.85 27.0248C397.85 19.617 396.885 19.0682 395.093 16.0502C393.302 13.0322 390.545 10.7002 387.099 8.9168C383.654 7.13345 379.657 6.03599 375.246 5.21291C370.836 4.38982 365.598 4.11545 359.809 4.11545V4.25264Z" fill="#010101"/>
<path d="M505.631 109.059H430.515V108.099C435.476 108.099 438.095 104.258 438.095 96.5757V13.8553C438.095 6.17318 435.614 2.3321 430.515 2.3321V1.37183H499.566V18.931H498.602C498.602 14.9528 497.499 11.3861 495.569 8.50526C493.64 5.62445 490.745 3.97827 487.024 3.97827H448.294V51.3059H481.235C488.954 51.3059 492.813 48.8366 492.813 43.7609H493.778V61.3201H492.813C492.813 56.2444 488.954 53.7751 481.235 53.7751H448.294V106.178H493.088C496.672 106.178 499.566 104.669 501.496 101.651C503.563 98.6335 504.528 95.0667 504.528 91.0885H505.493V108.648L505.631 109.059Z" fill="#010101"/>
<path d="M536.367 109.059H518.725V108.099C523.686 108.099 526.305 104.258 526.305 96.5757V13.8553C526.305 6.17315 523.824 2.33207 518.725 2.33207V1.3718H536.642L597.976 93.4205V13.7181C597.976 6.03597 595.495 2.19489 590.395 2.19489V1.23462H608.037V2.19489C603.075 2.19489 600.456 6.03597 600.456 13.7181V108.785H597.838L528.786 5.21288V96.4385C528.786 104.121 531.267 107.962 536.367 107.962V108.922V109.059Z" fill="#010101"/>
<path d="M633.949 109.059H616.307V108.099C621.544 108.099 625.128 104.258 627.333 96.7129L652.418 8.36804L650.488 1.50897H660.687L687.701 96.7129C689.907 104.258 693.49 108.099 698.728 108.099V109.059H673.367V108.099C678.191 108.099 679.57 104.258 677.364 96.5757L666.062 56.5187H641.253L629.952 96.5757C627.746 104.258 629.125 108.099 633.949 108.099V109.059ZM665.511 54.0495L653.796 12.895L642.08 54.0495H665.511Z" fill="#010101"/>
<path d="M280.145 183C274.08 183 268.705 179.982 263.743 173.946L267.051 171.751C268.154 173.397 269.118 174.769 269.945 175.867C270.772 176.964 271.737 177.924 272.702 178.885C273.667 179.845 274.907 180.668 276.01 181.079C277.112 181.491 278.491 181.765 279.731 181.765C282.488 181.765 284.28 180.531 285.244 178.199C286.209 175.867 286.76 171.614 286.76 165.578V138.828C286.76 135.398 285.658 133.615 283.315 133.615V133.203H294.892V133.615C292.549 133.615 291.447 135.398 291.447 138.828V167.498C291.447 172.849 290.482 176.827 288.414 179.296C286.347 181.765 283.59 183 280.007 183H280.145Z" fill="#010101"/>
<path d="M340.513 148.567C342.994 146.921 345.475 146.098 348.369 146.098C351.264 146.098 353.883 146.921 356.226 148.567C358.707 150.214 360.498 152.409 361.877 155.289C363.255 158.17 363.944 161.188 363.944 164.481C363.944 167.773 363.255 170.928 361.877 173.809C360.498 176.69 358.569 178.885 356.226 180.531C353.745 182.177 351.264 183 348.369 183C345.475 183 342.856 182.177 340.513 180.531C338.032 178.885 336.241 176.69 334.862 173.809C333.484 170.928 332.795 167.91 332.795 164.481C332.795 161.051 333.484 158.033 334.862 155.289C336.241 152.546 338.17 150.214 340.513 148.567ZM342.856 179.433C344.51 180.942 346.44 181.765 348.369 181.765C350.299 181.765 352.229 180.942 353.883 179.433C355.536 177.924 356.915 175.729 357.88 173.123C358.844 170.516 359.396 167.636 359.396 164.481C359.396 161.325 358.844 158.445 357.88 155.838C356.915 153.232 355.536 151.037 353.883 149.528C352.229 148.019 350.299 147.196 348.369 147.196C346.44 147.196 344.51 148.019 342.856 149.528C341.202 151.037 339.824 153.094 338.859 155.838C337.895 158.582 337.343 161.325 337.343 164.481C337.343 167.636 337.895 170.516 338.859 173.123C339.824 175.729 341.202 177.924 342.856 179.433Z" fill="#010101"/>
<path d="M409.979 176.552C409.979 179.982 411.081 181.765 413.424 181.765V182.177H401.847V181.765C404.19 181.765 405.292 179.982 405.292 176.552V152.546C405.292 149.116 404.19 147.333 401.847 147.333V146.921H409.979V176.552ZM409.841 142.257C409.289 142.943 408.462 143.217 407.635 143.217C406.808 143.217 405.981 142.943 405.43 142.257C404.879 141.571 404.465 140.885 404.465 140.062C404.465 139.239 404.741 138.416 405.43 137.867C406.119 137.181 406.808 136.907 407.635 136.907C408.462 136.907 409.152 137.181 409.841 137.867C410.53 138.553 410.805 139.239 410.805 140.062C410.805 140.885 410.53 141.571 409.841 142.257Z" fill="#010101"/>
<path d="M479.582 176.552C479.582 179.982 480.684 181.765 483.027 181.765V182.177H477.928C477.101 182.177 476.411 181.902 475.722 181.354C475.033 180.805 474.895 179.982 474.895 179.159C472.139 181.765 468.831 183 465.11 183C461.388 183 457.667 181.765 454.91 179.159C452.154 176.69 450.638 173.534 450.638 169.968C450.638 166.401 452.016 163.383 454.91 160.777C457.667 158.307 461.113 156.935 465.11 156.935C469.107 156.935 467.039 156.935 468.004 156.798C468.969 156.661 469.934 156.524 471.036 156.25C472.139 155.975 472.966 155.701 473.517 155.152C474.206 154.603 474.62 154.055 474.62 153.369C474.344 151.037 473.655 149.39 472.69 148.43C471.725 147.47 470.209 146.921 468.417 146.921C466.626 146.921 464.145 147.607 461.664 149.116C459.183 150.625 457.116 152.271 455.6 153.917L453.256 151.174C455.324 149.665 457.667 148.293 460.561 147.333C463.456 146.373 465.937 145.824 468.417 145.824C470.898 145.824 472.414 146.098 473.931 146.647C475.447 147.196 476.549 148.019 477.376 149.116C478.203 150.214 478.755 151.311 479.03 152.546C479.306 153.78 479.582 155.152 479.582 156.798V176.278V176.552ZM475.033 177.65V155.289C474.344 156.387 473.104 157.21 471.312 157.621C469.52 158.033 467.728 158.307 466.074 158.307C463.18 158.307 460.837 159.405 458.632 161.737C456.426 164.069 455.462 166.813 455.462 170.105C455.462 173.397 456.564 176.141 458.632 178.473C460.699 180.805 463.18 181.903 466.074 181.903C468.969 181.903 469.382 181.491 470.898 180.805C472.552 180.119 473.931 179.022 475.033 177.787V177.65Z" fill="#010101"/>
<path d="M523.962 154.055C523.962 155.152 524.238 156.112 524.789 156.798C525.34 157.621 526.167 158.17 526.994 158.719C527.959 159.268 529.062 159.679 530.302 159.953C531.543 160.365 532.783 160.639 534.161 160.914C535.54 161.188 536.918 161.6 538.296 161.874C539.675 162.148 540.915 162.56 542.155 163.109C543.396 163.657 544.499 164.206 545.463 165.029C546.428 165.715 547.117 166.675 547.669 167.773C548.22 168.87 548.496 170.242 548.496 171.751C548.496 174.906 547.255 177.513 544.774 179.708C542.293 181.903 538.985 182.863 535.126 182.863C531.267 182.863 529.337 182.314 526.857 181.079C524.238 179.845 522.17 178.336 520.654 176.278L523.962 173.397C525.616 176.004 527.546 178.061 529.889 179.433C532.232 180.805 534.713 181.628 537.469 181.628C540.226 181.628 541.742 180.942 543.396 179.433C545.05 177.924 546.015 176.004 546.015 173.672C546.015 171.34 545.601 170.654 544.636 169.556C543.672 168.459 542.569 167.636 541.053 166.95C539.537 166.264 537.883 165.852 536.091 165.441C534.299 165.029 532.508 164.618 530.716 164.069C528.924 163.657 527.27 163.109 525.754 162.56C524.238 162.011 522.997 161.051 522.17 159.953C521.206 158.719 520.792 157.347 520.792 155.701C520.792 152.957 522.033 150.625 524.514 148.705C526.994 146.784 530.302 145.824 534.437 145.824C538.572 145.824 539.537 146.373 541.88 147.607C544.223 148.842 546.152 150.351 547.669 152.408L544.636 154.741C542.982 152.134 541.053 150.076 538.848 148.705C536.642 147.333 534.161 146.784 531.681 146.921C529.475 147.058 527.684 147.744 526.443 148.979C525.203 150.214 524.376 151.723 524.376 153.643L523.962 154.055Z" fill="#010101"/>
<path d="M62.1012 11.1117L74.0922 5.35005L90.9072 3.15515L108.411 10.1514L122.745 32.512V48.5622L103.863 84.5037L63.2038 114.821L20.7528 85.3268L3.38654 51.443L2.55957 34.4325L14.5506 11.386L33.8465 3.97824L48.7319 5.21287L62.1012 11.1117Z" stroke="#010101" stroke-width="0.9" stroke-miterlimit="10"/>
<path d="M62.1013 11.7976L54.7964 31.2774L62.6526 38.4108L72.8518 33.3351V24.5555L62.1013 11.7976Z" stroke="#010101" stroke-width="0.9" stroke-miterlimit="10"/>
<path d="M73.6786 32.7864L86.0831 23.3208L64.4441 14.5412L62.1011 11.1117L74.2299 5.62444L77.5378 5.2129L76.0217 10.7002L68.3033 15.7759L85.1183 22.6349L90.9071 3.29236L76.2973 10.563L76.1595 10.7002V10.563" stroke="#010101" stroke-width="0.9" stroke-miterlimit="10"/>
<path d="M86.3588 23.3208L99.039 21.1259L108.273 10.2886L99.039 21.2631L122.332 33.8838H122.47L122.608 34.021L101.933 39.2339L98.7633 21.2631L86.0832 23.458L88.0128 38.4108L101.658 39.0967H101.796L122.332 48.6994L84.1536 68.7279L103.449 40.057L87.8749 38.4108L85.2562 47.8763L92.5611 55.97L90.0802 59.6739L83.6023 58.0277L85.1184 47.8763L87.5993 38.548L77.5379 37.9992L63.0659 54.1866L84.1536 53.2264L83.4645 57.7533L82.7753 59.5367L62.5146 54.461L83.8779 69.0022L62.7903 54.3238L62.6525 38.4108L73.9543 32.7863L62.9281 54.1866L77.4 37.862L73.8165 32.7863L62.1011 38.1364L54.6584 31.4145V37.7249L62.5146 54.0495L41.5648 39.5082L54.3828 35.9415L41.2891 39.371L40.1865 19.8913L58.3798 15.0899L60.3094 16.0502L58.3798 14.9528L54.5206 15.913L41.0135 4.80133" stroke="#010101" stroke-width="0.9" stroke-miterlimit="10"/>
<path d="M32.744 4.25262L40.1867 19.6169L22.6825 8.23089L14.8263 11.5232L41.1515 35.3928V39.2339L21.5799 37.9993L28.0578 23.8696C28.0578 23.7324 27.92 23.458 27.92 23.458V23.1837L8.89974 22.6349L10.1402 20.3029L24.0608 20.0285L27.5065 23.0465L2.97314 34.1582V35.6672L21.8556 36.9018L22.1312 36.4903H22.4069L21.4421 38.2736L3.38663 43.7609V49.7969C3.52446 49.7969 27.3687 49.5225 27.3687 49.5225L18.6855 39.2339L29.7117 53.6379L41.2893 53.2264L40.4623 39.3711L41.4271 53.0892L62.1013 54.0495L41.8406 71.4715M41.8406 71.4715L41.0136 53.3636L29.5739 53.9123L41.5649 71.1972L41.8406 71.4715ZM41.8406 71.4715L3.38663 50.8943L22.8204 67.6304L34.5357 68.1792L40.0488 71.06L28.4713 76.2729L23.096 67.9048L10.0024 64.4753L12.8967 69.9625L26.1282 72.7062L28.4713 76.4101L20.8908 84.9153L18.6855 80.6627L27.5065 75.3126L47.078 96.5757M47.078 96.5757L46.6646 102.886L36.4653 96.1642L31.2278 79.7024H31.917C31.917 79.8396 41.7028 71.7459 41.7028 71.7459L42.6676 72.1574L34.5357 82.7204L49.9724 87.3846L42.8054 72.0203L42.2541 71.1972L62.6526 85.464V86.2871C62.5148 86.2871 50.2481 87.5218 50.2481 87.5218L57.6908 102.475L53.556 105.63L47.078 96.5757ZM47.078 96.5757L53.556 105.767L53.8316 108.099L61.55 113.449L57.8286 102.612L59.0691 101.789L62.6526 103.709V113.998C62.7904 113.998 62.6526 86.4243 62.6526 86.4243L62.9282 85.1897L62.5148 54.0495L69.6818 58.8508L63.2039 85.0525L84.0159 68.5907L78.2271 86.5615L63.0661 85.6012V103.984C62.9282 103.984 78.0893 86.8358 78.0893 86.8358L63.6174 114.409L86.2212 89.8538V97.1245L85.8077 83.4063C85.8077 83.4063 93.526 77.096 93.6638 77.096C93.8017 77.096 103.725 84.3666 103.725 84.3666L93.6638 76.9588L119.024 55.6957L115.165 58.4393L112.408 53.7751L84.2916 68.5907L78.365 86.5615L85.6698 83.4063" stroke="#010101" stroke-width="0.9" stroke-miterlimit="10"/>
</svg>
