<svg width="39" height="39" viewBox="0 0 39 39" fill="none" xmlns="http://www.w3.org/2000/svg">
<g clip-path="url(#clip0_16_40)">
<path d="M10.3786 25.2133C8.01842 21.9926 6.9613 17.9994 7.41877 14.0328C7.87625 10.0662 9.81457 6.41852 12.846 3.81964C15.8774 1.22075 19.7783 -0.13771 23.7682 0.0160312C27.7582 0.169772 31.543 1.82438 34.3654 4.64882C37.1878 7.47326 38.8397 11.2592 38.9906 15.2493C39.1415 19.2394 37.7803 23.1393 35.1792 26.1689C32.5782 29.1984 28.9291 31.1341 24.9622 31.5887C20.9952 32.0434 17.0028 30.9834 13.7838 28.6209H13.7863C13.7148 28.7184 13.6351 28.8118 13.5474 28.9012L4.16302 38.2856C3.70597 38.7429 3.08594 39 2.43935 39.0002C1.79275 39.0005 1.17255 38.7438 0.715172 38.2868C0.257797 37.8297 0.000717163 37.2097 0.000488281 36.5631C0.000259399 35.9165 0.256905 35.2963 0.713955 34.8389L10.0983 25.4546C10.1854 25.3663 10.2791 25.2873 10.3786 25.2133ZM9.74977 15.8435C9.74977 17.604 10.0965 19.3473 10.7703 20.9739C11.444 22.6004 12.4315 24.0783 13.6764 25.3232C14.9212 26.568 16.3991 27.5555 18.0257 28.2293C19.6522 28.903 21.3955 29.2498 23.156 29.2498C24.9165 29.2498 26.6598 28.903 28.2864 28.2293C29.9129 27.5555 31.3908 26.568 32.6357 25.3232C33.8806 24.0783 34.868 22.6004 35.5418 20.9739C36.2155 19.3473 36.5623 17.604 36.5623 15.8435C36.5623 12.2879 35.1498 8.87802 32.6357 6.36386C30.1215 3.8497 26.7116 2.43726 23.156 2.43726C19.6005 2.43726 16.1905 3.8497 13.6764 6.36386C11.1622 8.87802 9.74977 12.2879 9.74977 15.8435Z" fill="black"/>
</g>
<defs>
<clipPath id="clip0_16_40">
<rect width="39" height="39" fill="white" transform="matrix(-1 0 0 1 39 0)"/>
</clipPath>
</defs>
</svg>
