<svg width="54" height="52" viewBox="0 0 54 52" fill="none" xmlns="http://www.w3.org/2000/svg">
<path d="M41.0602 29.055C39.2918 32.5065 36.8955 35.945 34.4453 39.0325C32.1184 41.9413 29.6331 44.7293 27 47.385C24.3669 44.7293 21.8816 41.9413 19.5548 39.0325C17.1045 35.945 14.7083 32.5065 12.9398 29.055C11.151 25.5677 10.125 22.3015 10.125 19.5C10.125 15.1902 11.9029 11.057 15.0676 8.00951C18.2322 4.96205 22.5245 3.25 27 3.25C31.4755 3.25 35.7677 4.96205 38.9324 8.00951C42.0971 11.057 43.875 15.1902 43.875 19.5C43.875 22.3015 42.8456 25.5677 41.0602 29.055ZM27 52C27 52 47.25 33.5205 47.25 19.5C47.25 14.3283 45.1165 9.36838 41.3189 5.71142C37.5213 2.05446 32.3706 0 27 0C21.6294 0 16.4787 2.05446 12.6811 5.71142C8.88348 9.36838 6.75 14.3283 6.75 19.5C6.75 33.5205 27 52 27 52Z" fill="black"/>
<path d="M28 26C26.2098 26 24.4929 25.3152 23.227 24.0962C21.9612 22.8772 21.25 21.2239 21.25 19.5C21.25 17.7761 21.9612 16.1228 23.227 14.9038C24.4929 13.6848 26.2098 13 28 13C29.7902 13 31.5071 13.6848 32.773 14.9038C34.0388 16.1228 34.75 17.7761 34.75 19.5C34.75 21.2239 34.0388 22.8772 32.773 24.0962C31.5071 25.3152 29.7902 26 28 26ZM28 29.25C30.6853 29.25 33.2607 28.2228 35.1595 26.3943C37.0583 24.5658 38.125 22.0859 38.125 19.5C38.125 16.9141 37.0583 14.4342 35.1595 12.6057C33.2607 10.7772 30.6853 9.75 28 9.75C25.3147 9.75 22.7393 10.7772 20.8405 12.6057C18.9417 14.4342 17.875 16.9141 17.875 19.5C17.875 22.0859 18.9417 24.5658 20.8405 26.3943C22.7393 28.2228 25.3147 29.25 28 29.25Z" fill="black"/>
</svg>
