<svg width="41" height="51" viewBox="0 0 41 51" fill="none" xmlns="http://www.w3.org/2000/svg">
<path d="M20.4997 9.16385L18.6624 6.70619C14.3497 0.937205 6.44186 2.92801 3.58723 10.1809C2.24704 13.5923 1.94467 18.5176 4.39186 24.8035C6.74936 30.8559 11.654 38.1055 20.4997 46.002C29.3455 38.1055 34.2475 30.8559 36.6076 24.8035C39.0548 18.5143 38.755 13.5923 37.4122 10.1809C34.5576 2.92801 26.6497 0.933871 22.337 6.70286L20.4997 9.16385ZM20.4997 50.0203C-18.7911 16.2334 8.40217 -10.1372 20.0487 3.81169C20.2025 3.99621 20.3528 4.18629 20.4997 4.38192C20.6441 4.18505 20.7945 3.99593 20.9507 3.81503C32.5947 -10.1439 59.7905 16.23 20.4997 50.0203Z" fill="black"/>
</svg>
